<svg viewBox="0 0 800 800" xmlns="http://www.w3.org/2000/svg"><path d="M619.11589922133,445.0575059780269 L658.1310727837969,467.5791733255725 M619.11589922133,445.0575059780269 L616.5325121724079,427.0191518732196 M616.5325121724079,427.0191518732196 L609.1506580733084,409.2901470719933 M609.1506580733084,409.2901470719933 L597.9476464684541,392.62929274618074 M597.9476464684541,392.62929274618074 L584.0937513372362,377.44689157223655 M584.0937513372362,377.44689157223655 L563.2415580125806,359.64449978117 M563.2415580125806,359.64449978117 L546.0856113067222,347.5655138817512 M546.0856113067222,347.5655138817512 L528.5596311908319,336.79851637818103 M658.1310727837969,467.5791733255725 L654.7246023315699,501.87752863267383 M654.7246023315699,501.87752863267383 L644.7173363024269,538.1084362792878 M644.7173363024269,538.1084362792878 L628.6908903657215,574.1669149130498 M628.6908903657215,574.1669149130498 L607.5764234916908,607.9581221998394 M607.5764234916908,607.9581221998394 L582.6005984706877,637.5188690203048 M582.6005984706877,637.5188690203048 L555.2143603424973,661.1316458518957 M555.2143603424973,661.1316458518957 L527.0087564983029,677.4242833277194 M527.0087564983029,677.4242833277194 L499.6226000482386,685.4496795514475 M499.6226000482386,685.4496795514475 L474.6473044079853,684.7409035472866 M474.6473044079853,684.7409035472866 L453.5344405039551,675.3384363095942 M453.5344405039551,675.3384363095942 L437.5113701320896,657.7880137526357 M437.5113701320896,657.7880137526357 L427.5098023556476,633.109029758624 M427.5098023556476,633.109029758624 L424.1115511013355,602.7354592598796 M424.1115511013355,602.7354592598796 L427.51460739557183,568.4325525631858 M427.51460739557183,568.4325525631858 L437.52147594590394,532.1942658614416 M437.52147594590394,532.1942658614416 L453.55063214262975,496.12727096005074 M453.55063214262975,496.12727096005074 L474.67029612900467,462.3283611636163 M474.67029612900467,462.3283611636163 L499.6526145168076,432.7624901499537 M499.6526145168076,432.7624901499537 L527.0451547144569,409.14834132827616 M527.0451547144569,409.14834132827616 L555.2554256031991,392.8583983719511 M555.2554256031991,392.8583983719511 L582.6435449088021,384.83914589506463 M582.6435449088021,384.83914589506463 L607.6176495498157,385.5561074157092 M607.6176495498157,385.5561074157092 L628.7264414415927,394.96692673974576 M628.7264414415927,394.96692673974576 L644.7434916399925,412.52395458480555 M644.7434916399925,412.52395458480555 L654.7384702288168,437.20628388022186 M654.7384702288168,437.20628388022186 L658.1310727837969,467.5791733255725 M528.5596311908319,336.79851637818103 L534.9822727477355,343.44651121154214 M534.9822727477355,343.44651121154214 L533.6349597552689,352.3711619982508 M533.6349597552689,352.3711619982508 L525.8911923539308,361.2145840181729 M525.8911923539308,361.2145840181729 L515.3817560458382,369.24091542579913 M515.3817560458382,369.24091542579913 L502.03293200505493,377.5516575101028 M502.03293200505493,377.5516575101028 L485.7513299108132,386.3337146590554 M485.7513299108132,386.3337146590554 L467.4579589409508,395.11190302575136 M467.4579589409508,395.11190302575136 L448.18178617625324,403.4467541141597 M448.18178617625324,403.4467541141597 L428.7901352893276,411.0547347796504 M428.7901352893276,411.0547347796504 L403.71230470899246,419.9104515983111 M403.71230470899246,419.9104515983111 L368.75278708495176,430.7320043204795 M368.75278708495176,430.7320043204795 L321.81364028532994,443.14765250886893 M321.81364028532994,443.14765250886893 L259.34964475038265,456.742015884176 M259.34964475038265,456.742015884176 L223.35203727273017,463.0222128574234 M223.35203727273017,463.0222128574234 L190.0530131598407,467.57917332557236 M528.5336035136368,527.8786867435808 L534.9485312091962,564.9856201217094 M534.9485312091962,564.9856201217094 L533.6098713098813,599.134236743921 M533.6098713098813,599.134236743921 L525.8852977319355,622.4554628189981 M525.8852977319355,622.4554628189981 L515.4002442030127,637.2841073993036 M515.4002442030127,637.2841073993036 L502.0784506644976,647.7482115092844 M502.0784506644976,647.7482115092844 L485.8235899776238,654.3523919115667 M485.8235899776238,654.3523919115667 L467.555515106201,656.9484737211056 M467.555515106201,656.9484737211056 L448.300299876537,655.929046575772 M448.300299876537,655.929046575772 L428.9224057661313,652.0036476263466 M428.9224057661313,652.0036476263466 L403.8591481415312,643.5611249156258 M403.8591481415312,643.5611249156258 L368.91307679591034,626.7504330593239 M368.91307679591034,626.7504330593239 L321.98943058910055,596.5905876844774 M321.98943058910055,596.5905876844774 L259.5474417322522,544.1617790170388 M259.5474417322522,544.1617790170388 L223.4450086734107,507.09204215469447 M223.4450086734107,507.09204215469447 L190.0530131598407,467.57917332557236 M528.5336035136368,527.8786867435808 L569.5851793258258,512.0293264270861 M569.5851793258258,512.0293264270861 L596.146571052578,493.6502265308978 M596.146571052578,493.6502265308978 L611.0597190318366,475.07571166499486 M611.0597190318366,475.07571166499486 L617.0398531407957,460.65832431623096 M617.0398531407957,460.65832431623096 L619.11589922133,445.0575059780269 M619.11589922133,445.0575059780269 L602.4315676786335,432.70309736604685 M602.4315676786335,432.70309736604685 L591.7685087332127,418.929035488643 M591.7685087332127,418.929035488643 L587.1421412993132,405.1103321073815 M587.1421412993132,405.1103321073815 L587.9155645272136,390.9191348291595 M587.9155645272136,390.9191348291595 L593.9767065636064,377.3895103071811 M593.9767065636064,377.3895103071811 L604.4902184685238,365.4030671987481 M604.4902184685238,365.4030671987481 L611.4463434271147,359.87353425176843 M611.4463434271147,359.87353425176843 L619.0812296617327,354.9833479301859 M619.0812296617327,354.9833479301859 L616.4983892184753,337.6027284329374 M616.4983892184753,337.6027284329374 L609.1180869092336,321.7803432381163 M609.1180869092336,321.7803432381163 L597.9174086278574,308.09837027505904 M597.9174086278574,308.09837027505904 L584.0663324092727,296.7215007755382 M584.0663324092727,296.7215007755382 L563.2181521250664,284.84293326596816 M563.2181521250664,284.84293326596816 L546.0653163726138,277.7575963594041 M546.0653163726138,277.7575963594041 L528.5423859098444,272.1520173550307 M528.5596311908319,336.79851637818103 L521.0211154541046,329.0632852763415 M521.0211154541046,329.0632852763415 L517.6222240301416,317.127694366019 M517.6222240301416,317.127694366019 L518.5461484010868,301.6367430312372 M518.5461484010868,301.6367430312372 L522.2838030169773,287.49986421322245 M522.2838030169773,287.49986421322245 L528.5423859098444,272.1520173550307 M638.6324256818252,478.8404762463696 L635.7939419611296,507.4227505630539 M635.7939419611296,507.4227505630539 L627.4545749683775,537.6156877310171 M627.4545749683775,537.6156877310171 L614.0990151666314,567.6650147845157 M614.0990151666314,567.6650147845157 L596.5032676012816,595.8248804743139 M596.5032676012816,595.8248804743139 L575.689629259404,620.459200900416 M575.689629259404,620.459200900416 L552.8673258249082,640.1366124658759 M552.8673258249082,640.1366124658759 L529.3623319043579,653.7136233277538 M529.3623319043579,653.7136233277538 L506.54039778431513,660.4010256250915 M506.54039778431513,660.4010256250915 L485.72773410960554,659.8098016407672 M485.72773410960554,659.8098016407672 L468.13396595245626,651.9738381009323 M468.13396595245626,651.9738381009323 L454.7818254085288,637.3480236535726 M454.7818254085288,637.3480236535726 L446.4476370521712,616.7819766622214 M446.4476370521712,616.7819766622214 L443.61615802705296,591.4707142858877 M443.61615802705296,591.4707142858877 L446.4522708035206,562.8852792828634 M446.4522708035206,562.8852792828634 L454.79136177139594,532.687217770721 M454.79136177139594,532.687217770721 L468.148803697757,502.6319766418817 M468.148803697757,502.6319766418817 L485.74816036869765,474.4667619891161 M485.74816036869765,474.4667619891161 L506.56630799252173,449.8288830930599 M506.56630799252173,449.8288830930599 L529.3929878643262,430.15051875620105 M529.3929878643262,430.15051875620105 L552.9012227881315,416.57537908845995 M552.9012227881315,416.57537908845995 L575.7245200023473,409.89224328260696 M575.7245200023473,409.89224328260696 L596.5363565936293,410.4891516551666 M596.5363565936293,410.4891516551666 L614.1272969651948,418.3309152532173 M614.1272969651948,418.3309152532173 L627.4752568328265,432.9613167064334 M627.4752568328265,432.9613167064334 L635.80486936325,453.52968682460056 M635.80486936325,453.52968682460056 L638.6324256818252,478.8404762463696 M472.56551667995143,239.8142732872339 L475.4980137730515,265.192566961589 M475.4980137730515,265.192566961589 L484.1382943561732,289.3050436695498 M484.1382943561732,289.3050436695498 L498.01991382859114,310.8489934637011 M498.01991382859114,310.8489934637011 L512.1352225587827,325.2194712458388 M512.1352225587827,325.2194712458388 L528.5596311908319,336.79851637818103 M472.56551667995143,239.8142732872339 L470.0197096493853,230.9280514339505 M470.0197096493853,230.9280514339505 L461.61711606565166,227.6324796146817 M461.61711606565166,227.6324796146817 L450.0866135484755,229.91706251925612 M450.0866135484755,229.91706251925612 L437.88088152911155,235.0053074371573 M437.88088152911155,235.0053074371573 L424.0091553464762,242.41035734828068 M424.0091553464762,242.41035734828068 L408.26285616366334,252.1196068797922 M408.26285616366334,252.1196068797922 L391.5140040007332,263.5730447306572 M391.5140040007332,263.5730447306572 L374.6577039112835,276.09930805135826 M374.6577039112835,276.09930805135826 L358.37315068624514,289.0890041745982 M358.37315068624514,289.0890041745982 L338.1649364092755,306.3792082856385 M338.1649364092755,306.3792082856385 L311.3134101290395,331.2442891418341 M311.3134101290395,331.2442891418341 L277.0915327949452,365.68701230534276 M277.0915327949452,365.68701230534276 L234.0864314849182,412.98528454564575 M234.0864314849182,412.98528454564575 L210.6489013291822,441.01993463692077 M210.6489013291822,441.01993463692077 L190.0530131598407,467.57917332557236 M190.0530131598407,467.57917332557236 L190.0530131598407,467.57917332557236 M472.5329486594961,560.1900844254114 L475.4684925430688,549.8027796233099 M475.4684925430688,549.8027796233099 L484.1108290212335,540.8985801262425 M484.1108290212335,540.8985801262425 L497.993667129129,533.958790451604 M497.993667129129,533.958790451604 L512.1093721568826,530.130437910124 M512.1093721568826,530.130437910124 L528.5336035136368,527.8786867435808 M472.5329486594961,560.1900844254114 L469.98564738423784,602.464421407608 M469.98564738423784,602.464421407608 L461.59596140739586,640.6775823449884 M461.59596140739586,640.6775823449884 L450.0854031917182,666.1808651666356 M450.0854031917182,666.1808651666356 L437.902487570227,681.987969482335 M437.902487570227,681.987969482335 L424.054613967132,692.7552616069756 M424.054613967132,692.7552616069756 L408.3305390987457,699.053592412929 M408.3305390987457,699.053592412929 L391.6015606761149,700.7627083576087 M391.6015606761149,700.7627083576087 L374.7604042017972,698.3519848240119 M374.7604042017972,698.3519848240119 L358.4841175531332,692.6388668765898 M358.4841175531332,692.6388668765898 L338.28421212728904,681.3928255568202 M338.28421212728904,681.3928255568202 L311.43808108428226,659.9120900918223 M311.43808108428226,659.9120900918223 L277.2221938536692,622.4237569270882 M277.2221938536692,622.4237569270882 L234.22338954652326,558.7782187476961 M234.22338954652326,558.7782187476961 L210.7106770929425,514.4430433842854 M210.7106770929425,514.4430433842854 L190.0530131598407,467.57917332557236 M190.0530131598407,467.57917332557236 L190.0530131598407,467.57917332557236 M528.5336035136368,527.8786867435808 L520.9971443195972,508.54425722586916 M520.9971443195972,508.54425722586916 L517.5993267220958,491.3813209791442 M517.5993267220958,491.3813209791442 L518.5231519103069,477.3168186148462 M518.5231519103069,477.3168186148462 L522.259758567309,468.93635631384086 M522.259758567309,468.93635631384086 L528.5162600573767,463.22502497471976 M528.5162600573767,463.22502497471976 L569.5605421959763,435.3908862896759 M569.5605421959763,435.3908862896759 L596.1166856486366,409.5962958248298 M596.1166856486366,409.5962958248298 L611.0267555141581,387.06178400052465 M611.0267555141581,387.06178400052465 L617.0056342514824,371.10918931478045 M617.0056342514824,371.10918931478045 L619.0812296617327,354.9833479301859 M502.077966563269,152.32775159229743 L541.0725546231104,129.81796824770896 M190.0725147871894,332.4679357325474 L274.7238719142846,241.8625160914449 M274.7238719142846,241.8625160914449 L355.6173507979207,181.03945174700232 M355.6173507979207,181.03945174700232 L399.3787519218376,158.36315764734047 M399.3787519218376,158.36315764734047 L435.5979605054446,146.43353933317562 M435.5979605054446,146.43353933317562 L463.561453130513,143.0613158264411 M463.561453130513,143.0613158264411 L483.59552509669857,145.1754021955001 M483.59552509669857,145.1754021955001 L493.2273243775244,148.109070212702 M493.2273243775244,148.109070212702 L502.077966563269,152.32775159229743 M541.0725546231104,129.81796824770896 L513.0680116023618,117.58427799851768 M513.0680116023618,117.58427799851768 L486.6912653797582,113.91462266856718 M486.6912653797582,113.91462266856718 L463.4752756464659,119.02164638510851 M463.4752756464659,119.02164638510851 L444.76902868075297,132.60782288205507 M444.76902868075297,132.60782288205507 L431.6592359255427,153.88291195958425 M431.6592359255427,153.88291195958425 L424.9072245607151,181.61004345017935 M424.9072245607151,181.61004345017935 L424.9048579407555,214.17770302631268 M424.9048579407555,214.17770302631268 L431.65187476772894,249.69340144689184 M431.65187476772894,249.69340144689184 L444.7559956095083,286.09362360971073 M444.7559956095083,286.09362360971073 L463.45576966887666,321.26363156289693 M463.45576966887666,321.26363156289693 L486.66476536312587,353.16016357267426 M486.66476536312587,353.16016357267426 L513.0346855808094,379.9300890746482 M513.0346855808094,379.9300890746482 L541.033564366249,400.01792489416056 M541.033564366249,400.01792489416056 L569.0346924831924,412.25616524409276 M569.0346924831924,412.25616524409276 L595.4110391647712,415.9331960550187 M595.4110391647712,415.9331960550187 L618.6297362494506,410.834683566846 M618.6297362494506,410.834683566846 L637.341177239307,397.25620422937874 M637.341177239307,397.25620422937874 L650.4574607995141,375.9862349105973 M650.4574607995141,375.9862349105973 L657.2157727870283,348.2604729062512 M657.2157727870283,348.2604729062512 L657.2228064515989,315.69011881072805 M657.2228064515989,315.69011881072805 L650.4777539270086,280.16827914726866 M650.4777539270086,280.16827914726866 L637.3724446477482,243.7598759023379 M637.3724446477482,243.7598759023379 L618.6686016642051,208.58152121276146 M618.6686016642051,208.58152121276146 L595.4535887050291,176.6783889539799 M595.4535887050291,176.6783889539799 L569.0770813619565,149.90512172478267 M569.0770813619565,149.90512172478267 L541.0725546231104,129.81796824770896 M190.0725147871894,332.4679357325474 L274.72595654006625,346.35545350845894 M274.72595654006625,346.35545350845894 L355.6118245663455,365.6334291759537 M355.6118245663455,365.6334291759537 L399.36620871607437,378.71414573064027 M399.36620871607437,378.71414573064027 L435.57852957691,391.59100105817384 M435.57852957691,391.59100105817384 L463.5363498050722,403.1905651140151 M463.5363498050722,403.1905651140151 L483.5664098206696,412.6364809348795 M483.5664098206696,412.6364809348795 L493.19638532768704,417.61785659852217 M493.19638532768704,417.61785659852217 L502.04547287767195,422.5314613285225 M502.04547287767195,422.5314613285225 L515.8039823421897,431.1302626422709 M515.8039823421897,431.1302626422709 L525.8155968446679,438.81430078701237 M525.8155968446679,438.81430078701237 L532.0647171798511,445.39805905403364 M532.0647171798511,445.39805905403364 L534.9933709993956,450.8915454597218 M534.9933709993956,450.8915454597218 L534.8590572358928,456.73481235008535 M534.8590572358928,456.73481235008535 L532.4208009821314,460.31906933168625 M532.4208009821314,460.31906933168625 L528.5162600573767,463.22502497471976 M502.077966563269,152.32775159229743 L515.8387147898252,163.25493052162625 M515.8387147898252,163.25493052162625 L525.8510616303483,177.5574826571177 M525.8510616303483,177.5574826571177 L532.0997073897165,194.09803245237546 M532.0997073897165,194.09803245237546 L535.0270085678703,211.7815155506419 M535.0270085678703,211.7815155506419 L534.8900690154125,235.7762556442433 M534.8900690154125,235.7762556442433 L532.4494447062561,254.17419337190117 M532.4494447062561,254.17419337190117 L528.5423859098444,272.1520173550307 M472.56551667995143,239.8142732872339 L472.56551667995143,239.8142732872339 M472.56551667995143,239.8142732872339 L475.49499339095735,250.20983094038158 M475.49499339095735,250.20983094038158 L484.13175641857856,259.1209916570875 M484.13175641857856,259.1209916570875 L498.0095457056177,266.06625554170057 M498.0095457056177,266.06625554170057 L512.1215621649212,269.89787430899725 M512.1215621649212,269.89787430899725 L528.5423859098444,272.1520173550307 M638.6324256818252,478.8404762463696 L521.5934068686823,411.27735099630775 M521.5934068686823,411.27735099630775 L518.7639048520051,385.96741165587446 M518.7639048520051,385.96741165587446 L510.43245946392926,365.3992969253074 M510.43245946392926,365.3992969253074 L497.0828861286975,350.76854127200363 M497.0828861286975,350.76854127200363 L479.4906454920168,342.9258343949541 M479.4906454920168,342.9258343949541 L458.6778974498868,342.32744840588487 M458.6778974498868,342.32744840588487 L435.8541306081861,349.0086580648876 M435.8541306081861,349.0086580648876 L412.3458951943682,362.58153495908095 M412.3458951943682,362.58153495908095 L389.5196839985244,382.2574314001046 M389.5196839985244,382.2574314001046 L368.7024469578646,406.8927807400524 M368.7024469578646,406.8927807400524 L351.1043898186436,435.05555125121094 M351.1043898186436,435.05555125121094 L337.7485608033945,465.1085757770186 M337.7485608033945,465.1085757770186 L329.41130234590753,495.3047771196344 M329.41130234590753,495.3047771196344 L326.5771351496476,523.8888165472417 M326.5771351496476,523.8888165472417 L329.41055974374564,549.1992290663395 M329.41055974374564,549.1992290663395 L337.7465805995757,569.7650212908267 M337.7465805995757,569.7650212908267 L351.1003341059204,584.391190813442 M351.1003341059204,584.391190813442 L368.69540199173076,592.2280985613855 M368.69540199173076,592.2280985613855 L389.50897667245744,592.8208009324233 M389.50897667245744,592.8208009324233 L412.33138016868315,586.1353252167888 M412.33138016868315,586.1353252167888 L435.83637457904354,572.5605771283417 M435.83637457904354,572.5605771283417 L458.6582095885216,552.8856330236566 M458.6582095885216,552.8856330236566 L479.47093779183535,528.2538413833262 M479.47093779183535,528.2538413833262 L497.065386361871,500.0964189059971 M497.065386361871,500.0964189059971 L510.4193337578316,470.04930758044515 M510.4193337578316,470.04930758044515 L518.7568685986787,439.8582299614475 M518.7568685986787,439.8582299614475 L521.5934068686823,411.27735099630775 M424.0920429718187,62.21168273709918 L424.0887922491419,107.26064784902701 M424.0887922491419,107.26064784902701 L438.4188750943903,118.51718489444886 M438.4188750943903,118.51718489444886 L450.0815968434073,133.77440545649438 M450.0815968434073,133.77440545649438 L458.9086583563977,151.8063413696668 M458.9086583563977,151.8063413696668 L465.13005590932516,171.39494825281326 M465.13005590932516,171.39494825281326 L470.12141764653927,198.35521289289215 M470.12141764653927,198.35521289289215 L472.00419941167434,219.25291640565752 M472.00419941167434,219.25291640565752 L472.56551667995143,239.8142732872339 M424.0920429718187,62.21168273709918 L448.6994355403385,80.33620745733111 M448.6994355403385,80.33620745733111 L465.07747044032976,101.3332774732429 M465.07747044032976,101.3332774732429 L472.27377746990237,123.98296376127746 M472.27377746990237,123.98296376127746 L469.8693901290551,146.96912344477354 M469.8693901290551,146.96912344477354 L458.0032446989625,168.95581326098443 M458.0032446989625,168.95581326098443 L437.36430868181594,188.6649941030725 M437.36430868181594,188.6649941030725 L409.15166881106796,204.95083386220136 M409.15166881106796,204.95083386220136 L375.00494594392416,216.86639513671315 M375.00494594392416,216.86639513671315 L336.90899136717695,223.71878199915048 M336.90899136717695,223.71878199915048 L297.07844487005855,225.10949263252516 M297.07844487005855,225.10949263252516 L257.8289329489273,220.957651649423 M257.8289329489273,220.957651649423 L221.44222180042698,211.5047106754701 M221.44222180042698,211.5047106754701 L190.03350503032368,197.30039052843983 M190.03350503032368,197.30039052843983 L165.42834700193055,179.1706333643916 M165.42834700193055,179.1706333643916 L149.05650381174783,158.169529595315 M149.05650381174783,158.169529595315 L141.86892721620308,135.51793232817454 M141.86892721620308,135.51793232817454 L144.28258368212565,112.53242222179483 M144.28258368212565,112.53242222179483 L156.15641347705622,90.54879372822813 M156.15641347705622,90.54879372822813 L176.79968870727242,70.84438464232153 M176.79968870727242,70.84438464232153 L205.0123285780835,54.56393392208088 M205.0123285780835,54.56393392208088 L239.15471223222897,42.65314440477346 M239.15471223222897,42.65314440477346 L277.2429824440936,35.80381886634251 M277.2429824440936,35.80381886634251 L317.0642598160146,34.413757809461686 M317.0642598160146,34.413757809461686 L356.3050413030235,38.56368781277803 M356.3050413030235,38.56368781277803 L392.6855607417306,48.01259503241795 M392.6855607417306,48.01259503241795 L424.0920429718187,62.21168273709918 M190.0725147871894,332.4679357325474 L244.41943732424937,224.36022227868045 M244.41943732424937,224.36022227868045 L301.5632782416118,149.81229920251462 M301.5632782416118,149.81229920251462 L334.7760679910944,121.03763633860353 M334.7760679910944,121.03763633860353 L364.0420176488823,105.08728113795308 M364.0420176488823,105.08728113795308 L388.07372898260024,99.44110617242637 M388.07372898260024,99.44110617242637 L406.2747465229297,100.49492865957052 M406.2747465229297,100.49492865957052 L415.4064581423854,103.13932489993596 M415.4064581423854,103.13932489993596 L424.0887922491419,107.26064784902701 M424.05629495293465,557.6126799346955 L438.3823684210772,565.2285308762503 M438.3823684210772,565.2285308762503 L450.04277929763884,570.0568102167178 M450.04277929763884,570.0568102167178 L458.86904603824485,572.1768200054589 M458.86904603824485,572.1768200054589 L465.09086709213614,571.9663412619843 M465.09086709213614,571.9663412619843 L470.08410455126057,568.9283323344138 M470.08410455126057,568.9283323344138 L471.9690200845456,565.0245932017024 M471.9690200845456,565.0245932017024 L472.5329486594961,560.1900844254114 M190.0725147871894,332.4679357325474 L244.4261788530752,398.8362079203693 M244.4261788530752,398.8362079203693 L301.5643295278036,459.24643660453523 M301.5643295278036,459.24643660453523 L334.7697544387302,490.5984865278003 M334.7697544387302,490.5984865278003 L364.027598703649,515.5208486595104 M364.027598703649,515.5208486595104 L388.05202596291355,533.9332491836167 M388.05202596291355,533.9332491836167 L406.24745903359013,546.5568320860187 M406.24745903359013,546.5568320860187 L415.37644465760695,552.4059476810964 M415.37644465760695,552.4059476810964 L424.05629495293465,557.6126799346955 M424.05629495293465,557.6126799346955 L424.053046216039,602.634125826056 M424.053046216039,602.634125826056 L392.6570306965712,588.4303034301407 M392.6570306965712,588.4303034301407 L356.2886350456031,578.9782453768448 M356.2886350456031,578.9782453768448 L317.0609301853878,574.82693151419 M317.0609301853878,574.82693151419 L277.25292281694357,576.2174561103409 M277.25292281694357,576.2174561103409 L239.17734529965549,583.0690656485083 M239.17734529965549,583.0690656485083 L205.04633982080026,594.9838268868778 M205.04633982080026,594.9838268868778 L176.84310259604513,611.2697062279506 M176.84310259604513,611.2697062279506 L156.2067080335321,630.9806853418299 M156.2067080335321,630.9806853418299 L144.3368368022202,652.9716434449559 M144.3368368022202,652.9716434449559 L141.92398629842182,675.964816775202 M141.92398629842182,675.964816775202 L149.10916888881354,698.6239655165026 M149.10916888881354,698.6239655165026 L165.47555673898535,719.6320701494774 M165.47555673898535,719.6320701494774 L190.07251478719013,737.7678707022245 M190.07251478719013,737.7678707022245 L221.47076335747528,751.9769255404887 M221.47076335747528,751.9769255404887 L257.8453465918057,761.4330173480978 M257.8453465918057,761.4330173480978 L297.0817760677933,765.5862421905383 M297.0817760677933,765.5862421905383 L336.89904638407745,764.1950680178938 M336.89904638407745,764.1950680178938 L374.98230314504536,757.3403971557199 M374.98230314504536,757.3403971557199 L409.1176449450542,745.4208641601456 M409.1176449450542,745.4208641601456 L437.3208821697465,729.1295957801841 M437.3208821697465,729.1295957801841 L457.95294041103443,709.4138449101231 M457.95294041103443,709.4138449101231 L469.81513239871106,687.4198254843527 M469.81513239871106,687.4198254843527 L472.2187199547917,664.42600257699 M472.2187199547917,664.42600257699 L465.02481274872173,641.7687648147956 M465.02481274872173,641.7687648147956 L448.65223731517244,620.7646939349859 M448.65223731517244,620.7646939349859 L424.053046216039,602.634125826056 M472.5329486594961,560.1900844254114 L472.5329486594961,560.1900844254114 M472.5329486594961,560.1900844254114 L475.46546396195004,534.8172522283082 M475.46546396195004,534.8172522283082 L484.1042978114091,510.7096318488715 M484.1042978114091,510.7096318488715 L497.9832740246726,489.16981990203 M497.9832740246726,489.16981990203 L512.0956315885504,474.80200458998195 M512.0956315885504,474.80200458998195 L528.5162600573767,463.22502497471976 M190.0725147871894,332.4679357325474 L190.0725147871894,332.4679357325474 M502.077966563269,152.32775159229743 L483.0440476238035,160.59138639009805 M483.0440476238035,160.59138639009805 L465.7906154914531,162.9305900435286 M465.7906154914531,162.9305900435286 L451.5156739851884,160.0197438279507 M451.5156739851884,160.0197438279507 L439.6172382740582,152.24576390689663 M439.6172382740582,152.24576390689663 L430.93475024533336,140.22290708965414 M430.93475024533336,140.22290708965414 L425.81416750275434,125.11574441143767 M425.81416750275434,125.11574441143767 L424.505004183711,116.32217589832385 M424.505004183711,116.32217589832385 L424.0887922491419,107.26064784902701 M541.069304938683,152.3380710129079 L517.7324244779375,142.1430085852981 M517.7324244779375,142.1430085852981 L495.7518319110852,139.0844582517625 M495.7518319110852,139.0844582517625 L476.4049826738159,143.33971845714484 M476.4049826738159,143.33971845714484 L460.8160890488689,154.66099858605315 M460.8160890488689,154.66099858605315 L449.8908033079672,172.38987952429704 M449.8908033079672,172.38987952429704 L444.26368816871116,195.49572737618502 M444.26368816871116,195.49572737618502 L444.26139198341707,222.63563080814905 M444.26139198341707,222.63563080814905 L449.8837712127439,252.23247435646965 M449.8837712127439,252.23247435646965 L460.8039622004177,282.566565311158 M460.8039622004177,282.566565311158 L476.38738355984503,311.8754785189354 M476.38738355984503,311.8754785189354 L495.72863417193105,338.4563819141897 M495.72863417193105,338.4563819141897 L517.7040234726885,360.7648914791547 M517.7040234726885,360.7648914791547 L541.0368130580342,377.50470107399275 M541.0368130580342,377.50470107399275 L564.3713220577583,387.70292329222605 M564.3713220577583,387.70292329222605 L586.3516371656931,390.76659548900864 M586.3516371656931,390.76659548900864 L605.7003665081531,386.5172458592379 M605.7003665081531,386.5172458592379 L621.2928670931512,375.2013109784875 M621.2928670931512,375.2013109784875 L632.2226603387601,357.47598542969456 M632.2226603387601,357.47598542969456 L637.8541509110009,334.3710886101927 M637.8541509110009,334.3710886101927 L637.8596880995804,307.22931398414437 M637.8596880995804,307.22931398414437 L632.2386729687854,277.6282056834113 M632.2386729687854,277.6282056834113 L621.3176566749024,247.2884334209532 M621.3176566749024,247.2884334209532 L605.7314096753719,217.97372386966754 M605.7314096753719,217.97372386966754 L586.3859804063687,191.38823696820728 M586.3859804063687,191.38823696820728 L564.4060167137249,169.07740675737134 M564.4060167137249,169.07740675737134 L541.069304938683,152.3380710129079 M190.0725147871894,332.4679357325474 L190.0725147871894,332.4679357325474 M502.04547287767195,422.5314613285225 L483.01413410582677,436.2438959008362 M483.01413410582677,436.2438959008362 L465.7621431157322,453.8237448070611 M465.7621431157322,453.8237448070611 L451.487775997286,473.21338777844346 M451.487775997286,473.21338777844346 L439.5892451074674,494.7206324051164 M439.5892451074674,494.7206324051164 L430.90598906519597,516.7620534296361 M430.90598906519597,516.7620534296361 L425.78395078830965,537.7740060638383 M425.78395078830965,537.7740060638383 L424.47373801946674,548.0749001187168 M424.47373801946674,548.0749001187168 L424.05629495293465,557.6126799346955 M402.15236967328315,480.24816110837816 L402.79026336541114,473.8170278062177 M402.79026336541114,473.8170278062177 L404.6661704023047,467.02332967796053 M404.6661704023047,467.02332967796053 L407.67106902715204,460.2619142419306 M407.67106902715204,460.2619142419306 L411.6303168732206,453.92575714573513 M411.6303168732206,453.92575714573513 L416.3138023324449,448.3831149308981 M416.3138023324449,448.3831149308981 L421.4493180841747,443.95612108358256 M421.4493180841747,443.95612108358256 L426.7383884530766,440.90206059650154 M426.7383884530766,440.90206059650154 L431.8736169486077,439.3984167960984 M431.8736169486077,439.3984167960984 L436.55655762963556,439.5325565579666 M436.55655762963556,439.5325565579666 L440.5150579280988,441.2966604560826 M440.5150579280988,441.2966604560826 L443.51907753437274,444.5881798371443 M443.51907753437274,444.5881798371443 L445.3940514013642,449.2158030501839 M445.3940514013642,449.2158030501839 L446.03103060913884,454.9105814754429 M446.03103060913884,454.9105814754429 L445.39301688134674,461.3415547792004 M445.39301688134674,461.3415547792004 L443.51709585253695,468.13499351895814 M443.51709585253695,468.13499351895814 L440.51229248474976,474.89610959920816 M440.51229248474976,474.89610959920816 L436.5532273224675,481.2319959511813 M436.5532273224675,481.2319959511813 L431.8699701231619,486.77445805756076 M431.8699701231619,486.77445805756076 L426.73467591584836,491.20140369283 M426.73467591584836,491.20140369283 L421.4457696227405,494.255558909115 M421.4457696227405,494.255558909115 L416.3106101465651,495.75941867863656 M416.3106101465651,495.75941867863656 L411.62762761697303,495.6255666498715 M411.62762761697303,495.6255666498715 L407.66898418902565,493.8617563326646 M407.66898418902565,493.8617563326646 L404.6647529615485,490.57046912451335 M404.6647529615485,490.57046912451335 L402.78954746151123,485.94296348833535 M402.78954746151123,485.94296348833535 L402.15236967328315,480.24816110837816 M404.5901450117107,73.46735500643592 L425.0961534815135,88.57148531983762 M425.0961534815135,88.57148531983762 L438.74407825307514,106.06932643394919 M438.74407825307514,106.06932643394919 L444.74039764530926,124.94419949462156 M444.74039764530926,124.94419949462156 L442.7360939459105,144.0992825318799 M442.7360939459105,144.0992825318799 L432.8471134646378,162.4213159056205 M432.8471134646378,162.4213159056205 L415.64769947271986,178.84530318832753 M415.64769947271986,178.84530318832753 L392.1371661986316,192.4164619966048 M392.1371661986316,192.4164619966048 L363.68186284208383,202.345764481213 M363.68186284208383,202.345764481213 L331.9357600108226,208.0558697351512 M331.9357600108226,208.0558697351512 L298.7442902830156,209.21475237606614 M298.7442902830156,209.21475237606614 L266.03696698539346,205.7550158494504 M266.03696698539346,205.7550158494504 L235.7151330868952,197.87784971602875 M235.7151330868952,197.87784971602875 L209.54136380781284,186.04127792693464 M209.54136380781284,186.04127792693464 L189.03690710061437,170.93351397273315 M189.03690710061437,170.93351397273315 L175.39328212885852,153.43287164052737 M175.39328212885852,153.43287164052737 L169.4030255383712,134.5566715109062 M169.4030255383712,134.5566715109062 L171.41376612832022,115.40203956860364 M171.41376612832022,115.40203956860364 L181.30808297592347,97.0821321137214 M181.30808297592347,97.0821321137214 L198.51051031076577,80.66145855093839 M198.51051031076577,80.66145855093839 L222.02104358488435,67.09404213088192 M222.02104358488435,67.09404213088192 L250.47333359854235,57.16805336646155 M250.47333359854235,57.16805336646155 L282.21410006345144,51.46007403026505 M282.21410006345144,51.46007403026505 L315.3991329006493,50.30164248499295 M315.3991329006493,50.30164248499295 L348.10039339647915,53.76005194166771 M348.10039339647915,53.76005194166771 L378.4179274951788,61.634416858444695 M378.4179274951788,61.634416858444695 L404.5901450117107,73.46735500643592 M404.55764681258137,613.8935511857551 L378.39415165626497,602.0566674611081 M378.39415165626497,602.0566674611081 L348.0867210020584,594.1796768510818 M348.0867210020584,594.1796768510818 L315.39635810018507,590.7201141776811 M315.39635810018507,590.7201141776811 L282.22238402522305,591.8789320064287 M282.22238402522305,591.8789320064287 L250.49219516391827,597.5888146742695 M250.49219516391827,597.5888146742695 L222.0493871645756,607.5181132061227 M222.0493871645756,607.5181132061227 L198.54668942888526,621.0900534769012 M198.54668942888526,621.0900534769012 L181.34999578280025,637.516202063461 M181.34999578280025,637.516202063461 L171.4589773800622,655.8422175278077 M171.4589773800622,655.8422175278077 L169.44890799754108,675.0032354883592 M169.44890799754108,675.0032354883592 L175.43716917860166,693.8857285137133 M175.43716917860166,693.8857285137133 L189.07624774962295,711.392204900075 M189.07624774962295,711.392204900075 L209.57387103547472,726.5050050103566 M209.57387103547472,726.5050050103566 L235.73891692017725,738.3455223761064 M235.73891692017725,738.3455223761064 L266.05064450860436,746.2253142027776 M266.05064450860436,746.2253142027776 L298.747066171749,749.6862039461192 M298.747066171749,749.6862039461192 L331.92747284749,748.5269350217287 M331.92747284749,748.5269350217287 L363.6629945187548,742.8149264361463 M363.6629945187548,742.8149264361463 L392.1088138527614,732.8823141841049 M392.1088138527614,732.8823141841049 L415.6115115884214,719.3066315251052 M415.6115115884214,719.3066315251052 L432.80519389980793,702.8771692186212 M432.80519389980793,702.8771692186212 L442.69087949260745,684.5490278354159 M442.69087949260745,684.5490278354159 L444.69451627440867,665.3875587799087 M444.69451627440867,665.3875587799087 L438.70019633212223,646.5063928235036 M438.70019633212223,646.5063928235036 L425.0568208268729,629.0027176552364 M425.0568208268729,629.0027176552364 L404.55764681258137,613.8935511857551 M541.069304938683,152.3380710129079 L424.0806662325465,219.87211137967785 M424.0806662325465,219.87211137967785 L447.41761455758126,236.61382814946273 M447.41761455758126,236.61382814946273 L469.39827317027755,258.9271738590883 M469.39827317027755,258.9271738590883 L488.7448153114349,285.51516448754575 M488.7448153114349,285.51516448754575 L504.33252841684623,314.8322204118329 M504.33252841684623,314.8322204118329 L515.2552787993792,345.17404525189835 M515.2552787993792,345.17404525189835 L520.8781951848401,374.77679297979205 M520.8781951848401,374.77679297979205 L520.8746159015552,401.91969856836783 M520.8746159015552,401.91969856836783 L515.2450260987165,425.0251521582149 M515.2450260987165,425.0251521582149 L504.31696604234185,442.75042796440636 M504.31696604234185,442.75042796440636 L488.7259303779173,454.06570954734707 M488.7259303779173,454.06570954734707 L469.37831259695395,458.3138403696646 M469.37831259695395,458.3138403696646 L447.39869113555676,455.24845476414106 M447.39869113555676,455.24845476414106 L424.0644175846776,445.0481241653 M424.0644175846776,445.0481241653 L400.73139157875846,428.30593376884656 M400.73139157875846,428.30593376884656 L378.75530771616303,405.99490932518773 M378.75530771616303,405.99490932518773 L359.4129447368703,379.4115030773651 M359.4129447368703,379.4115030773651 L343.82805780756553,350.10024442502777 M343.82805780756553,350.10024442502777 L332.9061331755092,319.76410166249116 M332.9061331755092,319.76410166249116 L327.281852942271,290.16561912174393 M327.281852942271,290.16561912174393 L327.28219122206815,263.02458472736936 M327.28219122206815,263.02458472736936 L332.9074053408087,239.91817967060922 M332.9074053408087,239.91817967060922 L343.83095744797896,222.1893477053403 M343.83095744797896,222.1893477053403 L359.41838561630004,210.86871994582836 M359.41838561630004,210.86871994582836 L378.76412278726883,206.61467767338746 M378.76412278726883,206.61467767338746 L400.7440213496721,209.6749407953933 M400.7440213496721,209.6749407953933 L424.0806662325465,219.87211137967785 M396.29968757181746,465.6084753303386 L396.65405574422726,462.03566650631603 M396.65405574422726,462.03566650631603 L397.6961976426797,458.26145256531066 M397.6961976426797,458.26145256531066 L399.3655464865852,454.50518484748807 M399.3655464865852,454.50518484748807 L401.5650846094801,450.985171760348 M401.5650846094801,450.985171760348 L404.16697746002507,447.90598981800537 M404.16697746002507,447.90598981800537 L407.02000670037353,445.4465959600308 M407.02000670037353,445.4465959600308 L409.9583588758552,443.74992170118276 M409.9583588758552,443.74992170118276 L412.8112629923288,442.91456926578826 M412.8112629923288,442.91456926578826 L415.41291689117935,442.98908129916015 M415.41291689117935,442.98908129916015 L417.6121232485497,443.96911823871216 M417.6121232485497,443.96911823871216 L419.2810753904255,445.79771780826457 M419.2810753904255,445.79771780826457 L420.32278680198215,448.3686008988965 M420.32278680198215,448.3686008988965 L420.67672146309826,451.53235503386134 M420.67672146309826,451.53235503386134 L420.3223162423923,455.10511447612424 M420.3223162423923,455.10511447612424 L419.2801700247037,458.87924836024143 M419.2801700247037,458.87924836024143 L417.610850580047,462.6354236861337 M417.610850580047,462.6354236861337 L415.41136883992766,466.1553532121813 M415.41136883992766,466.1553532121813 L412.80954643903914,469.2344795670723 M412.80954643903914,469.2344795670723 L409.95658557607925,471.6938585456975 M409.95658557607925,471.6938585456975 L407.0182840412767,473.39056204195515 M407.0182840412767,473.39056204195515 L404.1654012275993,474.225981133578 M404.1654012275993,474.225981133578 L401.5637344134473,474.15155790513325 M401.5637344134473,474.15155790513325 L399.3644838814268,473.17161157503807 M399.3644838814268,473.17161157503807 L397.69546642542974,471.3430836619546 M397.69546642542974,471.3430836619546 L396.653683522936,468.772236859187 M396.653683522936,468.772236859187 L396.29968757181746,465.6084753303386 M396.29968757181746,465.6084753303386 L399.2260022018136,472.9282521314904 M399.2260022018136,472.9282521314904 L402.15236967328315,480.24816110837816 M404.55764681258137,613.8935511857551 L404.57304690425116,357.7989617960421 M404.57304690425116,357.7989617960421 L407.3688296561112,359.0740027842571 M407.3688296561112,359.0740027842571 L410.1336381391811,359.5519003867491 M410.1336381391811,359.5519003867491 L412.47373364185916,359.04942574725897 M412.47373364185916,359.04942574725897 L414.2772961144267,357.57744400202694 M414.2772961144267,357.57744400202694 L415.4144000354617,355.3560077213295 M415.4144000354617,355.3560077213295 L415.95124563591406,352.48185828885516 M415.95124563591406,352.48185828885516 L415.92678064213675,349.52662801903875 M415.92678064213675,349.52662801903875 L415.331157683161,345.82021663874474 M415.331157683161,345.82021663874474 L414.1057616903548,341.86532845324786 M414.1057616903548,341.86532845324786 L412.39517562092175,338.1837635984681 M412.39517562092175,338.1837635984681 L410.17133502383166,334.75484130020254 M410.17133502383166,334.75484130020254 L407.4992502890186,331.8163407437583 M407.4992502890186,331.8163407437583 L404.5747395187423,329.65176485800663 M404.5747395187423,329.65176485800663 L404.5901450117107,73.46735500643592 M404.5747395187423,329.65176485800663 L401.6963624621265,328.4244264564258 M401.6963624621265,328.4244264564258 L398.67736090539387,328.0934247999777 M398.67736090539387,328.0934247999777 L395.97492384257123,328.8051730874548 M395.97492384257123,328.8051730874548 L393.791671675203,330.49646653126956 M393.791671675203,330.49646653126956 L392.3669735108132,332.8840159777278 M392.3669735108132,332.8840159777278 L391.680738538862,335.844539309429 M391.680738538862,335.844539309429 L391.7123430240013,338.79580857814074 M391.7123430240013,338.79580857814074 L392.4729347438461,342.4069746992939 M392.4729347438461,342.4069746992939 L394.0037539497907,346.18532398321037 M394.0037539497907,346.18532398321037 L396.06835197254344,349.6622177516185 M396.06835197254344,349.6622177516185 L398.63512314776875,352.89290838210684 M398.63512314776875,352.89290838210684 L401.5580406389637,355.6865192455953 M401.5580406389637,355.6865192455953 L404.57304690425116,357.7989617960421 M416.0109554046916,448.8386205102888 L415.7134130586194,452.35775555564896 M415.7134130586194,452.35775555564896 L414.7400743329417,456.40827608043736 M414.7400743329417,456.40827608043736 L413.1309705517753,460.45446598242904 M413.1309705517753,460.45446598242904 L410.9495382656643,464.2300966997823 M410.9495382656643,464.2300966997823 L408.305227533532,467.4615327410893 M408.305227533532,467.4615327410893 L405.3488900985476,469.92121480198784 M405.3488900985476,469.92121480198784 L402.2474945460278,471.45622210773115 M402.2474945460278,471.45622210773115 L399.2013867677745,471.96999552345744 M399.2013867677745,471.96999552345744 L396.42920061558084,471.4387135431125 M396.42920061558084,471.4387135431125 L394.14087827184693,469.9118739578978 M394.14087827184693,469.9118739578978 L392.52392843781905,467.50774249399433 M392.52392843781905,467.50774249399433 L391.71443976107383,464.40175521257197 M391.71443976107383,464.40175521257197 L391.7787648487837,460.81049954242934 M391.7787648487837,460.81049954242934 L392.7052611474045,456.96713161564315 M392.7052611474045,456.96713161564315 L394.42085400499093,453.08651420347115 M394.42085400499093,453.08651420347115 L396.7888042755265,449.4012289943566 M396.7888042755265,449.4012289943566 L399.58066574187717,446.1734265977712 M399.58066574187717,446.1734265977712 L402.5711021102965,443.5747651296156 M402.5711021102965,443.5747651296156 L405.2143844809868,441.8983212079693 M405.2143844809868,441.8983212079693 L408.17103677143945,440.74206867070683 M408.17103677143945,440.74206867070683 L410.60293679510136,440.50740178802994 M410.60293679510136,440.50740178802994 L412.6843542380525,441.0909230626205 M412.6843542380525,441.0909230626205 L414.35085113995495,442.54180685214106 M414.35085113995495,442.54180685214106 L415.5019516020245,444.92258110521504 M415.5019516020245,444.92258110521504 L415.88300203577535,446.75858711484705 M415.88300203577535,446.75858711484705 L416.0109554046916,448.8386205102888 M424.0743693459066,307.1352386259006 L418.823830661974,304.84059867579055 M418.823830661974,304.84059867579055 L413.87837787307234,304.1515926778198 M413.87837787307234,304.1515926778198 L409.5254231522965,305.1082381718111 M409.5254231522965,305.1082381718111 L406.0179370582945,307.65491276755307 M406.0179370582945,307.65491276755307 L403.5597459859634,311.64359093836134 M403.5597459859634,311.64359093836134 L402.29369111602966,316.84244880689073 M402.29369111602966,316.84244880689073 L402.2933324758005,322.94934468996115 M402.2933324758005,322.94934468996115 L403.5586768829002,329.6093750332744 M403.5586768829002,329.6093750332744 L406.01618076162924,336.4355021686266 M406.01618076162924,336.4355021686266 L409.5230269332263,343.03104048540024 M409.5230269332263,343.03104048540024 L413.87542281029454,349.01270782515024 M413.87542281029454,349.01270782515024 L418.82044025806596,354.03289030119987 M418.82044025806596,354.03289030119987 L424.07071340015295,357.799841270742 M424.07071340015295,357.799841270742 L429.3211320353929,360.09464119655007 M429.3211320353929,360.09464119655007 L434.2665707960532,360.7839065202366 M434.2665707960532,360.7839065202366 L438.6196207227281,359.8275602934651 M438.6196207227281,359.8275602934651 L442.1272894462203,357.2811563479084 M442.1272894462203,357.2811563479084 L444.5857087334356,353.29265820761094 M444.5857087334356,353.29265820761094 L445.85198512237355,348.0938485071024 M445.85198512237355,348.0938485071024 L445.85250783839683,341.9868578948283 M445.85250783839683,341.9868578948283 L444.5872324760651,335.3266116264221 M444.5872324760651,335.3266116264221 L442.1296867938062,328.50019683591347 M442.1296867938062,328.50019683591347 L438.62269754702095,321.9043650322673 M438.62269754702095,321.9043650322673 L434.2700900999105,315.92246560816676 M434.2700900999105,315.92246560816676 L429.32484105541835,310.9021656180395 M429.32484105541835,310.9021656180395 L424.0743693459066,307.1352386259006 M420.67672146309826,451.53235503386134 L416.0109554046916,448.8386205102888 M408.47278229333773,355.5474094309518 L411.38969223311216,356.82231311366667 M411.38969223311216,356.82231311366667 L414.13714850394337,357.2052347616053 M414.13714850394337,357.2052347616053 L416.55547934943587,356.6739154505574 M416.55547934943587,356.6739154505574 L418.5041370938171,355.25922376500205 M418.5041370938171,355.25922376500205 L419.86986916063825,353.0433706234434 M419.86986916063825,353.0433706234434 L420.5732968772537,350.1551275971217 M420.5732968772537,350.1551275971217 L420.5735343798684,346.7623478803386 M420.5735343798684,346.7623478803386 L419.8705635364653,343.062210363444 M419.8705635364653,343.062210363444 L418.50523599243877,339.26975882332937 M418.50523599243877,339.26975882332937 L416.5569019926834,335.60540480336897 M416.5569019926834,335.60540480336897 L414.13879425523106,332.28211498034466 M414.13879425523106,332.28211498034466 L411.3914505603277,329.493031789174 M411.3914505603277,329.493031789174 L408.47454260256507,327.4002515875649 M408.47454260256507,327.4002515875649 L405.55759561099734,326.1253972805434 M405.55759561099734,326.1253972805434 L402.8101350112088,325.74255567270166 M402.8101350112088,325.74255567270166 L400.39183355129916,326.27396735197976 M400.39183355129916,326.27396735197976 L398.4432321751614,327.6887425734785 M398.4432321751614,327.6887425734785 L397.07757054597255,329.90465128162623 M397.07757054597255,329.90465128162623 L396.37421119994366,332.7929091755237 M396.37421119994366,332.7929091755237 L396.37402433800804,336.1856596548971 M396.37402433800804,336.1856596548971 L397.0770164910095,339.8857305273371 M397.0770164910095,339.8857305273371 L398.44233113175886,343.67809328338734 M398.44233113175886,343.67809328338734 L400.3906209713961,347.34235671903986 M400.3906209713961,347.34235671903986 L402.80866340839293,350.6655749092952 M402.80866340839293,350.6655749092952 L405.5559356220803,353.454621829393 M405.5559356220803,353.454621829393 L408.47278229333773,355.5474094309518 M408.47278229333773,355.5474094309518 L404.57304690425116,357.7989617960421 M408.47454260256507,327.4002515875649 L416.27447222299935,317.2677239987161 M416.27447222299935,317.2677239987161 L424.0743693459066,307.1352386259006" stroke="black"  stroke-width="4"  fill="red"/></svg>