<svg viewBox="0 0 800 800" xmlns="http://www.w3.org/2000/svg"><path d="M511.0197668244721,131.8252982266771 L553.2423496570358,107.45214187094325 M511.0197668244721,131.8252982266771 L526.0842537634295,143.83587786766878 M526.0842537634295,143.83587786766878 L536.9849074495195,159.57723974475155 M536.9849074495195,159.57723974475155 L543.7108017977561,177.7745496777768 M543.7108017977561,177.7745496777768 L546.774219123262,197.1994869865677 M546.774219123262,197.1994869865677 L546.4334514374997,223.50847365712423 M546.4334514374997,223.50847365712423 L539.5790851291264,261.94182674194525 M539.5790851291264,261.94182674194525 L520.9461632197496,316.55906018315216 M520.9461632197496,316.55906018315216 L479.8637619791881,396.47876193044794 M479.8637619791881,396.47876193044794 L426.57812293376355,473.1734167602019 M553.2423496570358,107.45214187094325 L522.9195742101688,94.20573959835792 M522.9195742101688,94.20573959835792 L494.35934553104255,90.23230805708829 M494.35934553104255,90.23230805708829 L469.2215226093182,95.76209417942448 M469.2215226093182,95.76209417942448 L448.96676159519643,110.47294230121622 M448.96676159519643,110.47294230121622 L434.77173253949366,133.50919567739317 M434.77173253949366,133.50919567739317 L427.46078573066086,163.53159530563022 M427.46078573066086,163.53159530563022 L427.4582232005188,198.7952247612306 M427.4582232005188,198.7952247612306 L434.7637620207371,237.2509334384967 M434.7637620207371,237.2509334384967 L448.9526496387027,276.6643872499536 M448.9526496387027,276.6643872499536 L469.20040191551243,314.7457890010501 M469.20040191551243,314.7457890010501 L494.3306518275572,349.2827345584082 M494.3306518275572,349.2827345584082 L522.8834894410898,378.26869012727065 M522.8834894410898,378.26869012727065 L553.2001317639409,400.0194087273674 M553.2001317639409,400.0194087273674 L583.5192096192716,413.2707377606902 M583.5192096192716,413.2707377606902 L612.0790056831335,417.2521553295578 M612.0790056831335,417.2521553295578 L637.2197600723739,411.73158500004513 M637.2197600723739,411.73158500004513 L657.4801450749911,397.02907121308965 M657.4801450749911,397.02907121308965 L671.6822022483191,373.9983614122795 M671.6822022483191,373.9983614122795 L678.999971249064,343.977444637163 M678.999971249064,343.977444637163 L679.0075871644955,308.710897608284 M679.0075871644955,308.710897608284 L671.7041752527588,270.2485393124654 M671.7041752527588,270.2485393124654 L657.5140008177635,230.82622718414166 M657.5140008177635,230.82622718414166 L637.2618427888596,192.735787748942 M637.2618427888596,192.735787748942 L612.1250774991832,158.19169557011253 M612.1250774991832,158.19169557011253 L583.5651074741751,129.2021216438958 M583.5651074741751,129.2021216438958 L553.2423496570358,107.45214187094325 M510.9845832926047,424.3966288558381 L526.0467356409386,433.82068485740996 M526.0467356409386,433.82068485740996 L536.9465730319139,442.2258334409346 M536.9465730319139,442.2258334409346 L543.6729771389173,449.40620502615815 M543.6729771389173,449.40620502615815 L546.7378972677044,455.3797484128453 M546.7378972677044,455.3797484128453 L546.4000749612619,461.71333979920564 M546.4000749612619,461.71333979920564 L539.5510424823261,468.5131487401407 M539.5510424823261,468.5131487401407 L520.9265458244042,474.5057637728268 M520.9265458244042,474.5057637728268 L479.85568500666295,477.02484012041856 M479.85568500666295,477.02484012041856 L426.57812293376355,473.1734167602019 M173.1863215368698,326.8775920132611 L264.84727362389225,341.914697553285 M264.84727362389225,341.914697553285 L352.42866939556274,362.7884746217367 M352.42866939556274,362.7884746217367 L399.80487576791876,376.95194498075364 M399.80487576791876,376.95194498075364 L439.015085080394,390.8947364818521 M439.015085080394,390.8947364818521 L469.2876474774123,403.45465580368864 M469.2876474774123,403.45465580368864 L490.97603154720775,413.68260449630367 M490.97603154720775,413.68260449630367 L501.4031411637649,419.07634098421966 M501.4031411637649,419.07634098421966 L510.9845832926047,424.3966288558381 M173.1863215368698,326.8775920132611 L264.84501642508576,228.77193650989898 M264.84501642508576,228.77193650989898 L352.434653036923,162.91400219431299 M352.434653036923,162.91400219431299 L399.81845720436394,138.3605686807549 M399.81845720436394,138.3605686807549 L439.0361244381114,125.44320617121934 M439.0361244381114,125.44320617121934 L469.31482887447066,121.7917088480553 M469.31482887447066,121.7917088480553 L491.00755705156485,124.08082520115403 M491.00755705156485,124.08082520115403 L501.43664140382396,127.25739010650864 M501.43664140382396,127.25739010650864 L511.0197668244721,131.8252982266771 M511.0197668244721,131.8252982266771 L490.41020895924794,140.77300153906378 M490.41020895924794,140.77300153906378 L471.7285276388491,143.30584583703757 M471.7285276388491,143.30584583703757 L456.27189813802397,140.15403807177825 M456.27189813802397,140.15403807177825 L443.38850296995156,131.7365235527974 M443.38850296995156,131.7365235527974 L433.9872735115715,118.71840762678602 M433.9872735115715,118.71840762678602 L428.44280593910355,102.36066519937174 M428.44280593910355,102.36066519937174 L427.0252693159488,92.83915994923302 M427.0252693159488,92.83915994923302 L426.574603114365,83.02751331601576 M426.574603114365,83.02751331601576 L442.2713904172663,95.40384085104938 M442.2713904172663,95.40384085104938 L455.0029030459673,112.20420010996565 M455.0029030459673,112.20420010996565 L464.5853807648691,132.05366769127755 M464.5853807648691,132.05366769127755 L471.29062712940004,153.58470935700413 M471.29062712940004,153.58470935700413 L476.6046808380511,183.16351424946026 M476.6046808380511,183.16351424946026 L479.06403247239814,226.98142877768083 M479.06403247239814,226.98142877768083 L474.9324376699386,289.9802417996833 M474.9324376699386,289.9802417996833 L456.56423394075273,383.02347872150375 M456.56423394075273,383.02347872150375 L426.57812293376355,473.1734167602019 M426.57812293376355,473.1734167602019 L426.57812293376355,473.1734167602019 M553.2388309618339,131.8364718949523 L527.9701099076364,120.7974562455928 M527.9701099076364,120.7974562455928 L504.1699510512709,117.48571732923097 M504.1699510512709,117.48571732923097 L483.22155833543695,122.09323045951851 M483.22155833543695,122.09323045951851 L466.34220699218736,134.35169276920942 M466.34220699218736,134.35169276920942 L454.5125197172059,153.54818082531918 M454.5125197172059,153.54818082531918 L448.41958870044516,178.566744256373 M448.41958870044516,178.566744256373 L448.41710243559146,207.95330474434002 M448.41710243559146,207.95330474434002 L454.50490550103325,240.0001922863669 M454.50490550103325,240.0001922863669 L466.3290762761392,272.84535700561855 M466.3290762761392,272.84535700561855 L483.2025023565336,304.58047916535844 M483.2025023565336,304.58047916535844 L504.144832989722,333.36176526711677 M504.144832989722,333.36176526711677 L527.9393578505865,357.5169862822046 M527.9393578505865,357.5169862822046 L553.2036493843293,375.6425270914763 M553.2036493843293,375.6425270914763 L578.4698026665769,386.6849641007725 M578.4698026665769,386.6849641007725 L602.2696610958137,390.0022488712121 M602.2696610958137,390.0022488712121 L623.2200895530442,385.40113559743713 M623.2200895530442,385.40113559743713 L640.1033464426043,373.1484610186683 M640.1033464426043,373.1484610186683 L651.937914356165,353.95582266922463 M651.937914356165,353.95582266922463 L658.0355830068082,328.93828899757324 M658.0355830068082,328.93828899757324 L658.0415785670921,299.5497024169829 M658.0415785670921,299.5497024169829 L651.9552525210554,267.49819708384825 M651.9552525210554,267.49819708384825 L640.1301881204101,234.6468807548518 M640.1301881204101,234.6468807548518 L623.2537024917747,202.90548242690272 M623.2537024917747,202.90548242690272 L602.306847290009,174.11923339361803 M602.306847290009,174.11923339361803 L578.5073693664265,149.9614996282387 M578.5073693664265,149.9614996282387 L553.2388309618339,131.8364718949523 M510.9845832926047,424.3966288558381 L490.3778191827831,439.2441867702116 M490.3778191827831,439.2441867702116 L471.69769830323787,458.279305835656 M471.69769830323787,458.279305835656 L456.2416907383904,479.2740347759047 M456.2416907383904,479.2740347759047 L443.3581925126823,502.56166167316405 M443.3581925126823,502.56166167316405 L433.95613146414576,526.4276844024469 M433.95613146414576,526.4276844024469 L428.4100878673903,549.1790187468447 M428.4100878673903,549.1790187468447 L426.9914149203686,560.3326268273844 M426.9914149203686,560.3326268273844 L426.5394156729991,570.6599496266641 M426.5394156729991,570.6599496266641 L442.23196375121495,578.9921281952071 M442.23196375121495,578.9921281952071 L454.9609546426177,584.229089981149 M454.9609546426177,584.229089981149 L464.54254089753476,586.464141021322 M464.54254089753476,586.464141021322 L471.2482412854081,586.1316680200783 M471.2482412854081,586.1316680200783 L476.56438116996526,582.6723096275541 M476.56438116996526,582.6723096275541 L479.0286722142275,573.3409690389834 M479.0286722142275,573.3409690389834 L474.90618073867336,554.2153742841816 M474.90618073867336,554.2153742841816 L456.5523344408897,517.3874272869267 M456.5523344408897,517.3874272869267 L426.57812293376355,473.1734167602019 M426.57812293376355,473.1734167602019 L426.57812293376355,473.1734167602019 M173.1863215368698,326.8775920132611 L173.1863215368698,326.8775920132611 M173.1863215368698,326.8775920132611 L232.03931297742952,398.73975228567883 M232.03931297742952,398.73975228567883 L293.9072320774769,464.1505773886186 M293.9072320774769,464.1505773886186 L329.86126040031144,498.0978404625047 M329.86126040031144,498.0978404625047 L361.5411766961702,525.0834820642642 M361.5411766961702,525.0834820642642 L387.5546670968728,545.0203304768135 M387.5546670968728,545.0203304768135 L407.25652252817895,558.6890477019824 M407.25652252817895,558.6890477019824 L417.14119015631184,565.0223212740079 M417.14119015631184,565.0223212740079 L426.5394156729991,570.6599496266641 M173.1863215368698,326.8775920132611 L173.1863215368698,326.8775920132611 M173.1863215368698,326.8775920132611 L232.03201338085745,209.820821676722 M232.03201338085745,209.820821676722 L293.9060937173789,129.10192917723253 M293.9060937173789,129.10192917723253 L329.8680964823452,97.94531783829854 M329.8680964823452,97.94531783829854 L361.556789154572,80.67430967443386 M361.556789154572,80.67430967443386 L387.57816670310285,74.56058112304277 M387.57816670310285,74.56058112304277 L407.2860689524425,75.70164687563977 M407.2860689524425,75.70164687563977 L417.17368822518563,78.56500555762403 M417.17368822518563,78.56500555762403 L426.574603114365,83.02751331601576 M426.57812293376355,34.249368563192775 L426.574603114365,83.02751331601576 M426.57812293376355,34.249368563192775 L453.2225298300053,53.87425202462242 M453.2225298300053,53.87425202462242 L470.9563480239116,76.609471758896 M470.9563480239116,76.609471758896 L478.748369552089,101.13411230543892 M478.748369552089,101.13411230543892 L476.14494562298626,126.0230797116227 M476.14494562298626,126.0230797116227 L463.2965137442736,149.82984055120937 M463.2965137442736,149.82984055120937 L440.9490745503359,171.17055889371335 M440.9490745503359,171.17055889371335 L410.4009758746964,188.8045499791542 M410.4009758746964,188.8045499791542 L373.427567346671,201.70648837474627 M373.427567346671,201.70648837474627 L332.1780074017405,209.12611982350086 M332.1780074017405,209.12611982350086 L289.05026500425595,210.6319542952916 M289.05026500425595,210.6319542952916 L246.55165556428727,206.13642149090236 M246.55165556428727,206.13642149090236 L207.15283121680483,195.90096054253794 M207.15283121680483,195.90096054253794 L173.14408252954877,180.52079847830822 M173.14408252954877,180.52079847830822 L146.5020951499704,160.8902494283074 M146.5020951499704,160.8902494283074 L128.77498121922645,138.15066202442625 M128.77498121922645,138.15066202442625 L120.99241283550447,113.62395230681102 M120.99241283550447,113.62395230681102 L123.60587319326942,88.7356882501166 M123.60587319326942,88.7356882501166 L136.46262555302894,64.93224215125053 M136.46262555302894,64.93224215125053 L158.81476316262848,43.59669057369132 M158.81476316262848,43.59669057369132 L189.3628618383362,25.968534634925106 M189.3628618383362,25.968534634925106 L226.33157195077723,13.071763005385606 M226.33157195077723,13.071763005385606 L267.5728114146125,5.655446298826348 M267.5728114146125,5.655446298826348 L310.69051738330245,4.150315175851063 M310.69051738330245,4.150315175851063 L353.1796736787136,8.643778808431762 M353.1796736787136,8.643778808431762 L392.5717937630501,18.874872085945526 M392.5717937630501,18.874872085945526 L426.57812293376355,34.249368563192775 M426.5394156729991,570.6599496266641 L426.5358980037661,619.4082971017699 M426.5358980037661,619.4082971017699 L392.5409019840906,604.0286739927831 M392.5409019840906,604.0286739927831 L353.1619093017224,593.7941690537631 M353.1619093017224,593.7941690537631 L310.68691212390786,589.2992070051599 M310.68691212390786,589.2992070051599 L267.5835746573322,590.8048400394566 M267.5835746573322,590.8048400394566 L226.3560785967432,598.2236298165844 M226.3560785967432,598.2236298165844 L189.39968855158799,611.124701948575 M189.39968855158799,611.124701948575 L158.86177087846772,628.7587358925762 M158.86177087846772,628.7587358925762 L136.51708352226234,650.1014013688607 M136.51708352226234,650.1014013688607 L123.66461741832956,673.912783826646 M123.66461741832956,673.912783826646 L121.0520297407042,698.8093454733538 M121.0520297407042,698.8093454733538 L128.83200594212843,723.3442317805702 M128.83200594212843,723.3442317805702 L146.55321293662945,746.0913995839516 M146.55321293662945,746.0913995839516 L173.1863215368706,765.7284922978972 M173.1863215368706,765.7284922978972 L207.18373546061406,781.1137809938665 M207.18373546061406,781.1137809938665 L246.56942793810884,791.352653603737 M246.56942793810884,791.352653603737 L289.0538719604847,795.849684824149 M289.0538719604847,795.849684824149 L332.16723916713204,794.3433484410368 M332.16723916713204,794.3433484410368 L373.40305016367745,786.9212439217135 M373.40305016367745,786.9212439217135 L410.3641354931838,774.01500502367 M410.3641354931838,774.01500502367 L440.902053166236,756.3751359329938 M440.902053166236,756.3751359329938 L463.2420452380128,735.027303691764 M463.2420452380128,735.027303691764 L476.0861964060375,711.212606493258 M476.0861964060375,711.212606493258 L478.68875434372353,686.3153414970607 M478.68875434372353,686.3153414970607 L470.8993312978398,661.7825243609169 M470.8993312978398,661.7825243609169 L453.17142450819586,639.0397242271433 M453.17142450819586,639.0397242271433 L426.5358980037661,619.4082971017699 M553.2388309618339,131.8364718949523 L426.56580442137033,204.96101956366408 M426.56580442137033,204.96101956366408 L451.83459895770227,223.08862542493864 M451.83459895770227,223.08862542493864 L475.63482932722536,247.24908292356642 M475.63482932722536,247.24908292356642 L496.5828895253519,276.03804294383144 M496.5828895253519,276.03804294383144 L513.4609626249692,307.78198187890916 M513.4609626249692,307.78198187890916 L525.2879046631355,340.63552069908616 M525.2879046631355,340.63552069908616 L531.37628935081,372.6888011721192 M531.37628935081,372.6888011721192 L531.3724137723643,402.0786123369755 M531.3724137723643,402.0786123369755 L525.2768032379244,427.0967488687465 M525.2768032379244,427.0967488687465 L513.4441119880148,446.289333357867 M513.4441119880148,446.289333357867 L496.56244128600883,458.54130055845206 M496.56244128600883,458.54130055845206 L475.6132164059849,463.1410941311808 M475.6132164059849,463.1410941311808 L451.8141090437513,459.82195411502414 M451.8141090437513,459.82195411502414 L426.54821070094147,448.77723419214226 M426.54821070094147,448.77723419214226 L401.28366317559204,430.64911549710706 M401.28366317559204,430.64911549710706 L377.4883862566549,406.49117142019816 M377.4883862566549,406.49117142019816 L356.5448511738528,377.70717527827446 M356.5448511738528,377.70717527827446 L339.66983820285066,345.96951351670407 M339.66983820285066,345.96951351670407 L327.84379027126755,313.1221271397522 M327.84379027126755,313.1221271397522 L321.75392883570055,281.0734649285486 M321.75392883570055,281.0734649285486 L321.7542951184969,251.6856798564421 M321.7542951184969,251.6856798564421 L327.8451677471536,226.66651309477132 M327.8451677471536,226.66651309477132 L339.6729778771909,207.4700780656482 M339.6729778771909,207.4700780656482 L356.55074245245925,195.2123221288732 M356.55074245245925,195.2123221288732 L377.4979310444949,190.6061277527274 M377.4979310444949,190.6061277527274 L401.2973384463177,193.9197212431893 M401.2973384463177,193.9197212431893 L426.56580442137033,204.96101956366408 M405.46184647126466,46.43679195638134 L427.6653542978588,62.79125099805066 M427.6653542978588,62.79125099805066 L442.4430622524998,81.7375736184573 M442.4430622524998,81.7375736184573 L448.93576046591795,102.17491969415806 M448.93576046591795,102.17491969415806 L446.76553933575485,122.91567169195122 M446.76553933575485,122.91567169195122 L436.0579432750043,142.75441368857355 M436.0579432750043,142.75441368857355 L417.43475174824994,160.53798823027353 M417.43475174824994,160.53798823027353 L391.97800279940685,175.23257549035736 M391.97800279940685,175.23257549035736 L361.1671528128958,185.9838314334277 M361.1671528128958,185.9838314334277 L326.7930890493032,192.16662253503077 M326.7930890493032,192.16662253503077 L290.85401007336367,193.4214381577567 M290.85401007336367,193.4214381577567 L255.4391554518449,189.67530262095596 M255.4391554518449,189.67530262095596 L222.60726243505303,181.14606007468618 M222.60726243505303,181.14606007468618 L194.26681324937272,168.3296499602451 M194.26681324937272,168.3296499602451 L172.0649856411975,151.97125648286857 M172.0649856411975,151.97125648286857 L157.29193342630145,133.02190075789775 M157.29193342630145,133.02190075789775 L150.80579989689937,112.58311775770562 M150.80579989689937,112.58311775770562 L152.98299076717177,91.84285419677212 M152.98299076717177,91.84285419677212 L163.69636494177405,72.00641410381286 M163.69636494177405,72.00641410381286 L182.32281925773987,54.22642759370757 M182.32281925773987,54.22642759370757 L207.7795682066158,39.53589251892697 M207.7795682066158,39.53589251892697 L238.58715540395286,28.788224607736822 M238.58715540395286,28.788224607736822 L272.9554410536703,22.607735408587587 M272.9554410536703,22.607735408587587 L308.8875502894368,21.353408223465237 M308.8875502894368,21.353408223465237 L344.29584022689016,25.098106834700445 M344.29584022689016,25.098106834700445 L377.12307750394507,33.624316277975595 M377.12307750394507,33.624316277975595 L405.46184647126466,46.43679195638134 M405.4266580522322,631.5997842683328 L377.0973334872006,618.7830363961315 M377.0973334872006,618.7830363961315 L344.2810360236745,610.2539839031864 M344.2810360236745,610.2539839031864 L308.8845457893696,606.5080366112713 M308.8845457893696,606.5080366112713 L272.9644107666352,607.7627820566407 M272.9644107666352,607.7627820566407 L238.60757834072592,613.9453321463393 M238.60757834072592,613.9453321463393 L207.81025808438676,624.6965838094434 M207.81025808438676,624.6965838094434 L182.36199330438615,639.3920172219507 M182.36199330438615,639.3920172219507 L163.74174731528154,657.1779319814984 M163.74174731528154,657.1779319814984 L153.03194463273667,677.020985708513 M153.03194463273667,677.020985708513 L150.855480532835,697.7681639260155 M150.855480532835,697.7681639260155 L157.33945347165275,718.2137607515243 M157.33945347165275,718.2137607515243 L172.1075829321063,737.1694334770611 M172.1075829321063,737.1694334770611 L194.302011444325,753.5332800064594 M194.302011444325,753.5332800064594 L222.63301510794406,766.3539623146959 M222.63301510794406,766.3539623146959 L255.453965208415,774.8860479106357 M255.453965208415,774.8860479106357 L290.8570157517876,778.6334321281165 M290.8570157517876,778.6334321281165 L326.7841158697501,777.3781982451434 M326.7841158697501,777.3781982451434 L361.1467225587423,771.193346252991 M361.1467225587423,771.193346252991 L391.94730342978755,760.4385065580065 M391.94730342978755,760.4385065580065 L417.3955682097554,745.7390209601954 M417.3955682097554,745.7390209601954 L436.0125535841165,727.9495181690527 M436.0125535841165,727.9495181690527 L446.71658200360173,708.1041625383751 M446.71658200360173,708.1041625383751 L448.88608100833915,687.3564958840128 M448.88608100833915,687.3564958840128 L442.39554776050284,666.9123359829955 M442.39554776050284,666.9123359829955 L427.62276566309663,647.959696362023 M427.62276566309663,647.959696362023 L405.4266580522322,631.5997842683328 M426.5589862747769,299.44783944564296 L420.87380493223486,296.9632478603761 M420.87380493223486,296.9632478603761 L415.51896467328675,296.21720554350867 M415.51896467328675,296.21720554350867 L410.80566981856725,297.25304271018064 M410.80566981856725,297.25304271018064 L407.00783197730584,300.010532516235 M407.00783197730584,300.010532516235 L404.34615041240534,304.32939579544046 M404.34615041240534,304.32939579544046 L402.975290780953,309.95861815449825 M402.975290780953,309.95861815449825 L402.97490245227624,316.57104644524173 M402.97490245227624,316.57104644524173 L404.3449928083662,323.78239798988153 M404.3449928083662,323.78239798988153 L407.00593029337693,331.1735959160071 M407.00593029337693,331.1735959160071 L410.803075239083,338.3151167464867 M410.803075239083,338.3151167464867 L415.51576498868644,344.7919500019593 M415.51576498868644,344.7919500019593 L420.87013386871126,350.2277061152001 M420.87013386871126,350.2277061152001 L426.5550276876986,354.3064874859282 M426.5550276876986,354.3064874859282 L432.24007904384723,356.79125228977483 M432.24007904384723,356.79125228977483 L437.59490411328784,357.5375753994922 M437.59490411328784,357.5375753994922 L442.3083020551063,356.5020622735553 M442.3083020551063,356.5020622735553 L446.10633764403383,353.7448655222666 M446.10633764403383,353.7448655222666 L448.7682663155798,349.4261971766028 M448.7682663155798,349.4261971766028 L450.139365803509,343.7970269729428 M450.139365803509,343.7970269729428 L450.1399317902699,337.1844961112567 M450.1399317902699,337.1844961112567 L448.76991619451405,329.9729107671187 M448.76991619451405,329.9729107671187 L446.108933445453,322.58140137357475 M446.108933445453,322.58140137357475 L442.31163358071103,315.4395627612082 M442.31163358071103,315.4395627612082 L437.59871474717386,308.96247820930694 M437.59871474717386,308.96247820930694 L432.24409509871646,303.5265948541044 M432.24409509871646,303.5265948541044 L426.5589862747769,299.44783944564296 M405.44516570259145,323.8282968690611 L405.46184647126466,46.43679195638134 M405.44516570259145,323.8282968690611 L402.3285149122354,322.4993586778228 M402.3285149122354,322.4993586778228 L399.05959864351706,322.1409565109464 M399.05959864351706,322.1409565109464 L396.13345226239073,322.9116237373271 M396.13345226239073,322.9116237373271 L393.76946920557236,324.74292344014884 M393.76946920557236,324.74292344014884 L392.2268336951,327.3281156241315 M392.2268336951,327.3281156241315 L391.48379179140437,330.53371280619854 M391.48379179140437,330.53371280619854 L391.51801251428077,333.7292898685373 M391.51801251428077,333.7292898685373 L392.34156646088553,337.63939043014744 M392.34156646088553,337.63939043014744 L393.9991077747079,341.73051367437034 M393.9991077747079,341.73051367437034 L396.2346144275248,345.49522673945916 M396.2346144275248,345.49522673945916 L399.01386441964866,348.9933558270866 M399.01386441964866,348.9933558270866 L402.17874272777027,352.0182234293441 M402.17874272777027,352.0182234293441 L405.44333297248426,354.305535207799 M405.4266580522322,631.5997842683328 L405.44333297248426,354.305535207799 M405.44333297248426,354.305535207799 L408.4705522533011,355.68612483365195 M408.4705522533011,355.68612483365195 L411.46423319726813,356.20358307877393 M411.46423319726813,356.20358307877393 L413.998043172291,355.6595132951779 M413.998043172291,355.6595132951779 L415.9509055996316,354.06568004142724 M415.9509055996316,354.06568004142724 L417.18213964732695,351.66035196807843 M417.18213964732695,351.66035196807843 L417.7634256401067,348.54827876705923 M417.7634256401067,348.54827876705923 L417.73693541985665,345.34841280963104 M417.73693541985665,345.34841280963104 L417.0920064444888,341.3351825307045 M417.0920064444888,341.3351825307045 L415.7651714557577,337.05290639152815 M415.7651714557577,337.05290639152815 L413.912982072502,333.0665794480086 M413.912982072502,333.0665794480086 L411.5050506520454,329.3538089593766 M411.5050506520454,329.3538089593766 L408.6117691823672,326.1720576107637 M408.6117691823672,326.1720576107637 L405.44516570259145,323.8282968690611 M409.66779676320704,321.3904020151919 L406.5093831961586,320.01001452411055 M406.5093831961586,320.01001452411055 L403.53448620338213,319.5954810643894 M403.53448620338213,319.5954810643894 L400.91599633631523,320.17088331282656 M400.91599633631523,320.17088331282656 L398.80608860026314,321.7027744534002 M398.80608860026314,321.7027744534002 L397.3273767038535,324.1021173785156 M397.3273767038535,324.1021173785156 L396.5657928603933,327.22946694763385 M396.5657928603933,327.22946694763385 L396.56559052991753,330.90307129308127 M396.56559052991753,330.90307129308127 L397.326776783897,334.9094361932107 M397.326776783897,334.9094361932107 L398.8051129679614,339.0157329529747 M398.8051129679614,339.0157329529747 L400.91468337833965,342.9833262557876 M400.91468337833965,342.9833262557876 L403.5328927804258,346.58164238861633 M403.5328927804258,346.58164238861633 L406.5075857923896,349.6015682415839 M406.5075857923896,349.6015682415839 L409.6658907345537,351.86759802300327 M409.6658907345537,351.86759802300327 L412.8242641826398,353.2480389771265 M412.8242641826398,353.2480389771265 L415.79915648810527,353.66265910271056 M415.79915648810527,353.66265910271056 L418.4176781733107,353.0873568687997 M418.4176781733107,353.0873568687997 L420.52764694380255,351.5555561793236 M420.52764694380255,351.5555561793236 L422.0064351087127,349.1562734206321 M422.0064351087127,349.1562734206321 L422.7680929825167,346.0289399498361 M422.7680929825167,346.0289399498361 L422.76835014573646,342.3553039466892 M422.76835014573646,342.3553039466892 L422.00718696537626,338.34886688523835 M422.00718696537626,338.34886688523835 L420.52883680989373,334.2424739918131 M420.52883680989373,334.2424739918131 L418.41921858379703,330.27478260607046 M418.41921858379703,330.27478260607046 L415.8009384756456,326.6763889106703 M415.8009384756456,326.6763889106703 L412.8261680652091,323.65642378408916 M412.8261680652091,323.65642378408916 L409.66779676320704,321.3904020151919 M409.66779676320704,321.3904020151919 L418.11340911283764,310.41909787506677 M418.11340911283764,310.41909787506677 L426.5589862747769,299.44783944564296 M409.6658907345537,351.86759802300327 L405.44333297248426,354.305535207799" stroke="black"  stroke-width="4"  fill="red"/></svg>